<svg xmlns="http://www.w3.org/2000/svg" viewBox="0 0 256 58.6720009" class="svg-logo"><style>
        .st0 {
        fill: #fff;
        }
        .st1 {
        fill: #7c878c;
        }
        .st2 {
        fill: #1c242c;
        }
        .st3 {
        fill: #f2f2f2;
        }
        .st4 {
        fill: #def244;
        }
        .st5 {
        fill: #a6b533;
        }
        .st6 {
        fill: #f2fab4;
        }
        .st7 {
        fill: #63ffbd;
        }
        .st8 {
        fill: #4abf8e;
        }
        .st9 {
        fill: #c1ffe5;
        }
        .st10 {
        fill: #59befe;
        }
        .st11 {
        fill: #438fbf;
        }
        .st12 {
        fill: #bde5ff;
        }
        .st13 {
        fill: #49377c;
        }
        .st14 {
        fill: #312654;
        }
        .st15 {
        fill: #ada8bb;
        }
        .st16 {
        fill: #f21b91;
        }
        .st17 {
        fill: #b5146d;
        }
        .st18 {
        fill: #faa4d3;
        }
      </style> <g id="white"><g id="horizontal_7_"><g id="wordmark_23_"><circle cx="247.307" cy="29.499" r="1.599" class="st0"></circle> <path id="thematic_22_" d="M183.109 17.305l11.049 23.857H172.06l11.049-23.857zm-6.994 21.279h13.99l-6.996-15.14-6.994 15.14zM63.497 17.918h16.246v2.578H72.91v20.666h-2.578V20.496h-6.834v-2.578zm40.185 13.301H91.078v9.943H88.5V17.918h2.578V28.64h12.604V17.918h2.578v23.244h-2.578V31.22zm15.592-2.62h10.148v2.579h-10.19v7.406h12.81v2.578h-15.387V17.918h15.386v2.578h-12.767V28.6zm44.645-11.294v23.857h-2.578V24.628l-8.47 10.029-8.471-10.029v16.534h-2.578V17.305l11.049 13.257 11.048-13.257zm34.546.613h16.246v2.578h-6.834v20.666H205.3V20.496h-6.834v-2.578zm25.001 0h2.579v23.244h-2.579V17.918zm29.997 4.214a8.266 8.266 0 0 0-2.907-1.493 12.199 12.199 0 0 0-3.273-.428c-1.282 0-2.49.244-3.622.736a9.21 9.21 0 0 0-2.945 2.004c-.833.847-1.496 1.842-1.986 2.989s-.736 2.358-.736 3.642c0 1.282.246 2.496.736 3.64a9.558 9.558 0 0 0 1.986 2.99 9.211 9.211 0 0 0 2.945 2.002c1.132.493 2.34.74 3.622.74.49 0 1.03-.036 1.616-.103.587-.068 1.208-.205 1.863-.41s1.314-.49 1.985-.86a9.141 9.141 0 0 0 1.9-1.411l1.353 1.8a8.878 8.878 0 0 1-3.828 2.6c-1.513.53-3.13.797-4.848.797-1.637 0-3.18-.313-4.625-.941a12.267 12.267 0 0 1-3.784-2.537c-1.08-1.065-1.93-2.32-2.558-3.766s-.941-2.986-.941-4.623.314-3.18.941-4.625c.628-1.446 1.473-2.702 2.537-3.763a12.094 12.094 0 0 1 3.764-2.54 11.541 11.541 0 0 1 4.625-.939c1.39 0 2.775.252 4.153.757 1.379.504 2.584 1.164 3.622 1.983l-1.595 1.76z" class="st0"></path></g> <g id="logo_23_"><path id="_x3C_Compound_Path_x3E__44_" d="M29.41 1.556c-.032-.052-.116-.052-.147 0L20.34 17.013a.645.645 0 0 0-.499 0l-2.156-3.733c-.03-.053-.114-.053-.144 0l-7.11 12.315a.647.647 0 0 0-.25-.05.636.636 0 0 0-.389.142l-8.134-8.134a.084.084 0 0 0-.132.102l6.745 11.681-6.744 11.681a.08.08 0 0 0 0 .084.082.082 0 0 0 .072.042h13.488l2.454 4.25a.083.083 0 0 0 .072.041c.01 0 .022-.002.032-.006a.084.084 0 0 0 .05-.099l-1.123-4.186h16.422c.032.233.176.43.386.516l-4.125 15.393c-.01.04.01.083.049.1.01.003.022.005.032.005a.086.086 0 0 0 .073-.041l16.015-27.738a.087.087 0 0 0 0-.084L29.409 1.556zm4.606 38.996a.636.636 0 0 0-.389-.142.645.645 0 0 0-.249.05l-6.13-10.618a.632.632 0 0 0 .244-.422h17.656L34.016 40.552zm-20.061-11.3a.633.633 0 0 0-.244-.423l6.13-10.617a.644.644 0 0 0 .5 0l6.13 10.617a.633.633 0 0 0-.245.423H13.955zm-3.774-2.408c.149 0 .279-.058.389-.142l2.245 2.245a.636.636 0 0 0-.143.389c0 .359.291.65.65.65.03 0 .054-.013.083-.017l2.95 11.007h-1.17l-6.72-11.64 1.466-2.542c.077.032.161.05.25.05zM29.336 1.765l15.87 27.487H27.492a.642.642 0 0 0-.882-.516L20.48 18.12a.638.638 0 0 0 .26-.506.638.638 0 0 0-.26-.507l8.856-15.34zM17.613 13.49l2.089 3.617a.638.638 0 0 0-.261.507c0 .21.106.388.26.506l-6.13 10.618a.646.646 0 0 0-.249-.05.636.636 0 0 0-.389.142l-2.245-2.246a.636.636 0 0 0 .142-.388.638.638 0 0 0-.26-.507l7.043-12.2zM1.989 18.12l7.685 7.685a.636.636 0 0 0-.143.389c0 .21.106.388.26.507l-1.423 2.467L1.989 18.12zm-.245 22.855l6.623-11.473 6.624 11.473H1.744zm15.624 3.781l-2.087-3.614h1.118l.969 3.614zm-3.8-14.821a.643.643 0 0 0 .387-.516h12.271a.642.642 0 0 0 .883.515l6.13 10.617a.633.633 0 0 0-.245.424H16.528l-2.96-11.04zm16.014 26.546l3.963-14.79c.028.004.053.017.082.017a.65.65 0 0 0 .65-.65.636.636 0 0 0-.143-.388L44.96 29.845 29.582 56.482z" class="st0"></path> <path id="_x3C_Compound_Path_x3E__43_" d="M45.538 29.227L30.303 2.84c.375-.293.632-.729.632-1.241a1.599 1.599 0 1 0-3.198 0c0 .213.046.416.122.602L2.84 16.646c-.293-.375-.728-.632-1.241-.632a1.599 1.599 0 1 0 0 3.198c.214 0 .416-.046.603-.122l5.915 10.246-5.915 10.246a1.59 1.59 0 0 0-.603-.122 1.599 1.599 0 1 0 0 3.198c.513 0 .948-.257 1.241-.632L27.859 56.47a1.59 1.59 0 0 0 1.477 2.201c.883 0 1.6-.716 1.6-1.599 0-.512-.258-.948-.633-1.24l15.235-26.388a.22.22 0 0 0 0-.218zM13.711 47.803L3.132 41.694l14.37 3.85 10.516 10.518-14.307-8.26zM8.367 29.769l8.797 15.237-11.925-3.195-2.08-.558c.008-.066.039-.125.039-.194 0-.512-.257-.948-.632-1.24l4.806-8.325.995-1.725zm20.97 25.706c-.363 0-.681.142-.95.345L17.919 45.35l26.906-15.533-14.884 25.78a1.588 1.588 0 0 0-.604-.122zM13.71 10.869L28.018 2.61 17.5 13.128l-14.37 3.85 10.58-6.109zM3.198 17.613c0-.069-.031-.128-.04-.194L17.67 13.53a.21.21 0 0 0 .097-.056L28.388 2.852c.268.203.586.345.948.345.214 0 .417-.045.604-.121l15.147 26.236L17.724 45.11l-9.17-15.883-5.988-10.373c.375-.293.632-.729.632-1.241z" class="st0"></path> <path id="_x3C_Compound_Path_x3E__42_" d="M45.35 25.921c-1.074 0-2.02.506-2.646 1.282L20.79 14.551c.148-.382.238-.794.238-1.23a3.415 3.415 0 0 0-6.83 0 3.406 3.406 0 0 0 2.891 3.363v25.304a3.406 3.406 0 0 0-2.89 3.362 3.415 3.415 0 1 0 6.829 0c0-.435-.09-.847-.238-1.229l21.914-12.652a3.393 3.393 0 0 0 2.646 1.282 3.415 3.415 0 0 0 0-6.83zM18.137 41.988V16.684a3.39 3.39 0 0 0 2.123-1.23l21.913 12.653c-.148.382-.237.794-.237 1.229s.089.847.237 1.23L20.26 43.218a3.39 3.39 0 0 0-2.123-1.23z" class="st0"></path></g></g></g></svg>