<svg xmlns="http://www.w3.org/2000/svg" viewBox="0 0 256 256" class="logo logo-mobile" data-v-9f790e22="" data-v-3d9a46ef=""><style data-v-9f790e22="">
    .st0 {
    fill: #fff;
    }
    .st1 {
    fill: #7c878c;
    }
    .st2 {
    fill: #1c242c;
    }
    .st3 {
    fill: #f2f2f2;
    }
    .st4 {
    fill: #def244;
    }
    .st5 {
    fill: #a6b533;
    }
    .st6 {
    fill: #f2fab4;
    }
    .st7 {
    fill: #63ffbd;
    }
    .st8 {
    fill: #4abf8e;
    }
    .st9 {
    fill: #c1ffe5;
    }
    .st10 {
    fill: #59befe;
    }
    .st11 {
    fill: #438fbf;
    }
    .st12 {
    fill: #bde5ff;
    }
    .st13 {
    fill: #49377c;
    }
    .st14 {
    fill: #312654;
    }
    .st15 {
    fill: #ada8bb;
    }
    .st16 {
    fill: #f21b91;
    }
    .st17 {
    fill: #b5146d;
    }
    .st18 {
    fill: #faa4d3;
    }
  </style> <g id="white" data-v-9f790e22=""><g id="vertical_7_" data-v-9f790e22=""><g id="wordmark_22_" data-v-9f790e22=""><circle cx="244.439" cy="240.217" r="2.126" class="st0" data-v-9f790e22=""></circle> <path id="thematic_21_" d="M159.066 224l14.693 31.727h-29.387L159.066 224zm-9.3 28.298h18.604l-9.304-20.134-9.3 20.134zM0 224.815h21.605v3.429h-9.088v27.483H9.088v-27.483H0v-3.429zm53.44 17.69H36.678v13.222H33.25v-30.912h3.429v14.26h16.76v-14.26h3.429v30.912h-3.429v-13.223zm20.735-3.484H87.67v3.429H74.12v9.848h17.034v3.429H70.69v-30.912h20.463v3.429h-16.98v10.777zM133.547 224v31.727h-3.429V233.74l-11.265 13.336-11.265-13.336v21.987h-3.428V224l14.693 17.63L133.547 224zm45.94.815h21.605v3.429h-9.088v27.483h-3.429v-27.483h-9.088v-3.429zm33.248 0h3.429v30.912h-3.429v-30.912zm39.891 5.605c-1.197-.94-2.489-1.603-3.865-1.985a16.223 16.223 0 0 0-4.353-.57c-1.705 0-3.312.324-4.818.98a12.25 12.25 0 0 0-3.916 2.664 12.755 12.755 0 0 0-2.64 3.974 12.192 12.192 0 0 0-.98 4.845c0 1.704.328 3.319.98 4.84a12.71 12.71 0 0 0 2.64 3.975 12.25 12.25 0 0 0 3.916 2.664c1.506.655 3.113.983 4.818.983.651 0 1.369-.047 2.149-.137.78-.09 1.607-.273 2.477-.546a14.46 14.46 0 0 0 2.64-1.143 12.157 12.157 0 0 0 2.528-1.876l1.798 2.395a11.807 11.807 0 0 1-5.09 3.456c-2.013.706-4.162 1.061-6.448 1.061-2.176 0-4.228-.417-6.15-1.252-1.924-.835-3.601-1.958-5.033-3.374-1.435-1.416-2.566-3.085-3.4-5.008-.836-1.923-1.253-3.971-1.253-6.148s.417-4.228 1.252-6.15c.835-1.924 1.958-3.593 3.374-5.005 1.416-1.416 3.081-2.54 5.004-3.378 1.923-.83 3.975-1.248 6.152-1.248 1.848 0 3.69.335 5.523 1.006 1.833.671 3.436 1.549 4.817 2.637l-2.122 2.34z" class="st0" data-v-9f790e22=""></path></g> <g id="logo_22_" data-v-9f790e22=""><path d="M144.45 5.094c-.102-.172-.376-.172-.477 0L114.77 55.675a2.111 2.111 0 0 0-1.631 0l-7.055-12.218c-.098-.172-.375-.172-.473 0L82.344 83.759a2.117 2.117 0 0 0-.818-.164c-.486 0-.913.191-1.271.466L53.637 57.44a.274.274 0 0 0-.432.332l22.07 38.228-22.068 38.226a.264.264 0 0 0 0 .273.27.27 0 0 0 .236.137h44.14l8.028 13.906c.05.086.141.137.237.137.035 0 .07-.008.105-.02a.276.276 0 0 0 .16-.324l-3.671-13.7h53.74c.102.762.574 1.406 1.262 1.69l-13.499 50.373a.278.278 0 0 0 .16.324.28.28 0 0 0 .344-.117l52.406-90.77a.283.283 0 0 0 0-.273L144.45 5.093zm15.073 127.61c-.358-.275-.784-.467-1.27-.467-.29 0-.564.06-.815.164l-20.06-34.744a2.07 2.07 0 0 0 .796-1.384h57.78l-36.43 36.43zM93.876 95.726a2.072 2.072 0 0 0-.797-1.385l20.059-34.744a2.106 2.106 0 0 0 1.634 0l20.06 34.743a2.072 2.072 0 0 0-.8 1.386H93.877zm-12.35-7.88c.487 0 .914-.192 1.272-.467l7.348 7.348c-.275.358-.466.785-.466 1.272 0 1.174.951 2.126 2.126 2.126.096 0 .177-.043.27-.055l9.653 36.019H97.9L75.908 95.999l4.802-8.317c.252.105.527.165.816.165zm62.685-82.07l51.934 89.95h-57.97c-.14-1.04-.994-1.853-2.071-1.853-.29 0-.564.06-.816.164l-20.06-34.743c.505-.389.853-.972.853-1.658 0-.687-.348-1.27-.853-1.658L144.21 5.777zm-38.363 38.364l6.834 11.837c-.506.389-.853.971-.853 1.659 0 .686.347 1.27.852 1.658L92.62 94.039a2.113 2.113 0 0 0-.815-.165c-.487 0-.914.191-1.272.466l-7.348-7.348c.275-.358.466-.785.466-1.271 0-.687-.347-1.27-.852-1.659l23.048-39.921zM54.72 59.3l25.146 25.147c-.275.359-.467.786-.467 1.273 0 .687.348 1.27.853 1.658l-4.66 8.073L54.72 59.301zm-.803 74.789l21.674-37.542 21.675 37.542H53.918zm51.127 12.375l-6.829-11.828h3.659l3.17 11.828zM92.613 97.963c.689-.284 1.16-.927 1.263-1.69h40.157c.14 1.04.993 1.853 2.07 1.853.29 0 .567-.06.819-.165l20.059 34.742a2.073 2.073 0 0 0-.8 1.387h-53.886l-9.682-36.127zm52.403 86.869l12.967-48.397c.092.012.174.054.27.054a2.126 2.126 0 0 0 2.125-2.126c0-.486-.191-.913-.466-1.271l35.428-35.428-50.324 87.168z" class="st0" data-v-9f790e22=""></path> <path d="M197.23 95.645L147.375 9.292c1.227-.957 2.068-2.383 2.068-4.06a5.232 5.232 0 1 0-10.464 0c0 .7.149 1.362.397 1.971L57.504 54.475c-.957-1.229-2.383-2.07-4.061-2.07a5.232 5.232 0 1 0 0 10.464c.7 0 1.362-.15 1.973-.398L74.773 96l-19.357 33.53a5.206 5.206 0 0 0-1.973-.4 5.232 5.232 0 1 0 0 10.465c1.678 0 3.104-.841 4.061-2.07l81.871 47.27a5.202 5.202 0 0 0-.397 1.973 5.233 5.233 0 0 0 10.465 0c0-1.678-.84-3.103-2.068-4.061l49.855-86.352a.72.72 0 0 0 0-.71zM93.08 156.43l-34.62-19.99 47.023 12.601 34.413 34.417L93.08 156.43zM75.592 97.418l28.786 49.861-39.023-10.457-6.809-1.824c.028-.218.129-.41.129-.635 0-1.677-.841-3.104-2.069-4.061l15.727-27.241 3.259-5.643zm68.618 84.118c-1.185 0-2.225.465-3.103 1.13l-34.26-34.26 88.045-50.832-48.707 84.36a5.196 5.196 0 0 0-1.975-.398zM93.08 35.57l46.816-27.028L105.48 42.96 58.455 55.563 93.08 35.57zM58.675 57.637c0-.225-.101-.417-.129-.635l47.485-12.725a.685.685 0 0 0 .317-.183l34.76-34.76c.877.664 1.917 1.13 3.103 1.13.7 0 1.364-.15 1.974-.399l49.57 85.855-89.544 51.698-30.006-51.973-19.599-33.947c1.228-.958 2.069-2.384 2.069-4.061z" class="st0" data-v-9f790e22=""></path> <path d="M196.615 84.826c-3.515 0-6.612 1.656-8.66 4.194l-71.71-41.403c.484-1.25.776-2.6.776-4.022 0-6.171-5.002-11.174-11.174-11.174-6.17 0-11.173 5.003-11.173 11.174 0 5.584 4.107 10.171 9.459 11.001v82.807c-5.352.83-9.46 5.418-9.46 11.002 0 6.171 5.003 11.174 11.174 11.174s11.174-5.003 11.174-11.174c0-1.423-.292-2.771-.776-4.022l71.71-41.403c2.048 2.538 5.145 4.194 8.66 4.194 6.172 0 11.175-5.003 11.175-11.174s-5.003-11.174-11.175-11.174zm-89.053 52.577V54.596a11.091 11.091 0 0 0 6.948-4.022l71.709 41.403c-.486 1.251-.778 2.6-.778 4.023s.292 2.772.778 4.023l-71.71 41.403a11.092 11.092 0 0 0-6.947-4.023z" class="st0" data-v-9f790e22=""></path></g></g></g></svg>