<svg xmlns="http://www.w3.org/2000/svg" viewBox="0 0 500 500" width="500" height="500" preserveAspectRatio="xMidYMid meet" style="width: 100%; height: 100%; transform: translate3d(0px, 0px, 0px);"><defs><clipPath id="__lottie_element_2"><rect width="500" height="500" x="0" y="0"></rect></clipPath></defs><g clip-path="url(#__lottie_element_2)"><g transform="matrix(0,0,0,0,66,345)" opacity="1" style="display: block;"><g opacity="1" transform="matrix(1,0,0,1,67.11900329589844,213.87399291992188)"><path fill="rgb(65025,65025,65025)" fill-opacity="1" d=" M60.48699951171875,36.01300048828125 C60.48699951171875,36.01300048828125 -61.43199920654297,-34.37699890136719 -61.43199920654297,-34.37699890136719 C-61.43199920654297,-34.37699890136719 -60.487998962402344,-36.01300048828125 -60.487998962402344,-36.01300048828125 C-60.487998962402344,-36.01300048828125 61.43199920654297,34.375999450683594 61.43199920654297,34.375999450683594 C61.43199920654297,34.375999450683594 60.48699951171875,36.01300048828125 60.48699951171875,36.01300048828125z"></path></g></g><g transform="matrix(0.07159879058599472,0,0,0.07159879058599472,209.6990966796875,152.41880798339844)" opacity="1" style="display: block;"><g opacity="1" transform="matrix(1,0,0,1,87.66000366210938,76.85800170898438)"><path fill="rgb(65025,65025,65025)" fill-opacity="1" d=" M2.8320000171661377,0 C2.8320000171661377,1.5640000104904175 1.5640000104904175,2.8320000171661377 0,2.8320000171661377 C-1.5640000104904175,2.8320000171661377 -2.8320000171661377,1.5640000104904175 -2.8320000171661377,0 C-2.8320000171661377,-1.5640000104904175 -1.5640000104904175,-2.8320000171661377 0,-2.8320000171661377 C1.5640000104904175,-2.8320000171661377 2.8320000171661377,-1.5640000104904175 2.8320000171661377,0z"></path></g></g><g transform="matrix(0.07159879058599472,0,0,0.07159879058599472,279.8556213378906,28.443462371826172)" opacity="1" style="display: block;"><g opacity="1" transform="matrix(1,0,0,1,92.60099792480469,68.28299713134766)"><path fill="rgb(65025,65025,65025)" fill-opacity="1" d=" M34.874000549316406,-59.66899871826172 C34.874000549316406,-59.66899871826172 -34.23699951171875,60.03499984741211 -34.23699951171875,60.03499984741211 C-34.23699951171875,60.03499984741211 -34.874000549316406,59.66699981689453 -34.874000549316406,59.66699981689453 C-34.874000549316406,59.66699981689453 34.237998962402344,-60.03499984741211 34.237998962402344,-60.03499984741211 C34.237998962402344,-60.03499984741211 34.874000549316406,-59.66899871826172 34.874000549316406,-59.66899871826172z"></path></g></g><g transform="matrix(0.9906883835792542,0,0,0.9906883835792542,118.67300415039062,181.28414916992188)" opacity="1" style="display: block;"><g opacity="1" transform="matrix(1,0,0,1,66.86199951171875,160.6540069580078)"><path fill="rgb(65025,65025,65025)" fill-opacity="1" d=" M9.0600004196167,32.46900177001953 C9.0600004196167,32.46900177001953 8.329000473022461,32.66400146484375 8.329000473022461,32.66400146484375 C8.329000473022461,32.66400146484375 -9.0600004196167,-32.46900177001953 -9.0600004196167,-32.46900177001953 C-9.0600004196167,-32.46900177001953 -8.32800006866455,-32.66400146484375 -8.32800006866455,-32.66400146484375 C-8.32800006866455,-32.66400146484375 9.0600004196167,32.46900177001953 9.0600004196167,32.46900177001953z"></path></g></g><g transform="matrix(0.9906883835792542,0,0,0.9906883835792542,162.47225952148438,225.0843963623047)" opacity="1" style="display: block;"><g opacity="1" transform="matrix(1,0,0,1,102.03500366210938,223.06100463867188)"><path fill="rgb(65025,65025,65025)" fill-opacity="1" d=" M25.13599967956543,26.469999313354492 C25.13599967956543,26.469999313354492 -26.469999313354492,-25.13599967956543 -26.469999313354492,-25.13599967956543 C-26.469999313354492,-25.13599967956543 -25.13599967956543,-26.469999313354492 -25.13599967956543,-26.469999313354492 C-25.13599967956543,-26.469999313354492 26.469999313354492,25.13599967956543 26.469999313354492,25.13599967956543 C26.469999313354492,25.13599967956543 25.13599967956543,26.469999313354492 25.13599967956543,26.469999313354492z"></path></g></g><g transform="matrix(1.8381799459457397,0,0,1.8381799459457397,54.23320007324219,14.714141845703125)" opacity="1" style="display: block;"><g opacity="1" transform="matrix(1,0,0,1,162.21600341796875,189.76600646972656)"><path fill="rgb(65025,65025,65025)" fill-opacity="1" d=" M35.50400161743164,-59.60599899291992 C35.50400161743164,-59.60599899291992 -33.867000579833984,60.54899978637695 -33.867000579833984,60.54899978637695 C-33.867000579833984,60.54899978637695 -35.50299835205078,59.60499954223633 -35.50299835205078,59.60499954223633 C-35.50299835205078,59.60499954223633 33.86800003051758,-60.54899978637695 33.86800003051758,-60.54899978637695 C33.86800003051758,-60.54899978637695 35.50400161743164,-59.60599899291992 35.50400161743164,-59.60599899291992z"></path></g></g><g transform="matrix(1.8381799459457397,0,0,1.8381799459457397,54.234039306640625,14.712821960449219)" opacity="1" style="display: block;"><g opacity="1" transform="matrix(1,0,0,1,111.77100372314453,118.61100006103516)"><path fill="rgb(65025,65025,65025)" fill-opacity="1" d=" M35.404998779296875,60.595001220703125 C35.404998779296875,60.595001220703125 34.77399826049805,60.95899963378906 34.77399826049805,60.95899963378906 C34.77399826049805,60.95899963378906 -35.404998779296875,-60.595001220703125 -35.404998779296875,-60.595001220703125 C-35.404998779296875,-60.595001220703125 -34.77399826049805,-60.95899963378906 -34.77399826049805,-60.95899963378906 C-34.77399826049805,-60.95899963378906 35.404998779296875,60.595001220703125 35.404998779296875,60.595001220703125z"></path></g></g><g transform="matrix(1.8381799459457397,0,0,1.8381799459457397,54.233245849609375,14.714202880859375)" opacity="1" style="display: block;"><g opacity="1" transform="matrix(1,0,0,1,137.48199462890625,213.64300537109375)"><path fill="rgb(65025,65025,65025)" fill-opacity="1" d=" M9.680000305175781,-34.683998107910156 C9.680000305175781,-34.683998107910156 -8.972999572753906,34.87300109863281 -8.972999572753906,34.87300109863281 C-8.972999572753906,34.87300109863281 -9.680999755859375,34.68199920654297 -9.680999755859375,34.68199920654297 C-9.680999755859375,34.68199920654297 8.972000122070312,-34.87300109863281 8.972000122070312,-34.87300109863281 C8.972000122070312,-34.87300109863281 9.680000305175781,-34.683998107910156 9.680000305175781,-34.683998107910156z"></path></g></g><g transform="matrix(1.8381799459457397,0,0,1.8381799459457397,54.23316955566406,14.714141845703125)" opacity="1" style="display: block;"><g opacity="1" transform="matrix(1,0,0,1,127.98799896240234,249.07000732421875)"><path fill="rgb(65025,65025,65025)" fill-opacity="1" d=" M6.978000164031982,0.04800000041723251 C6.978000164031982,3.9019999504089355 3.8540000915527344,7.0269999504089355 0,7.0269999504089355 C-3.8540000915527344,7.0269999504089355 -6.978000164031982,3.9019999504089355 -6.978000164031982,0.04800000041723251 C-6.978000164031982,-3.805999994277954 -3.8540000915527344,-6.929999828338623 0,-6.929999828338623 C3.8540000915527344,-6.929999828338623 6.978000164031982,-3.805999994277954 6.978000164031982,0.04800000041723251z"></path></g></g><g transform="matrix(1.8381799459457397,0,0,1.8381799459457397,54.233428955078125,14.712982177734375)" opacity="1" style="display: block;"><g opacity="1" transform="matrix(1,0,0,1,162.3800048828125,66.51899719238281)"><path fill="rgb(65025,65025,65025)" fill-opacity="1" d=" M34.03300094604492,60.834999084472656 C34.03300094604492,60.834999084472656 -35.667999267578125,-59.89099884033203 -35.667999267578125,-59.89099884033203 C-35.667999267578125,-59.89099884033203 -34.03200149536133,-60.834999084472656 -34.03200149536133,-60.834999084472656 C-34.03200149536133,-60.834999084472656 35.667999267578125,59.89099884033203 35.667999267578125,59.89099884033203 C35.667999267578125,59.89099884033203 34.03300094604492,60.834999084472656 34.03300094604492,60.834999084472656z"></path></g></g><g transform="matrix(1.8381799459457397,0,0,1.8381799459457397,54.23408508300781,14.712249755859375)" opacity="1" style="display: block;"><g opacity="1" transform="matrix(1,0,0,1,44.40800094604492,114.29499816894531)"><path fill="rgb(65025,65025,65025)" fill-opacity="1" d=" M2.8289999961853027,0 C2.8289999961853027,1.562000036239624 1.562000036239624,2.8289999961853027 0,2.8289999961853027 C-1.562999963760376,2.8289999961853027 -2.8289999961853027,1.562000036239624 -2.8289999961853027,0 C-2.8289999961853027,-1.562000036239624 -1.562999963760376,-2.8289999961853027 0,-2.8289999961853027 C1.562000036239624,-2.8289999961853027 2.8289999961853027,-1.562000036239624 2.8289999961853027,0z"></path></g></g><g transform="matrix(1.8381799459457397,0,0,1.8381799459457397,54.23408508300781,14.712821960449219)" opacity="1" style="display: block;"><g opacity="1" transform="matrix(1,0,0,1,56.323001861572266,93.68000030517578)"><path fill="rgb(65025,65025,65025)" fill-opacity="1" d=" M20.3439998626709,-34.507999420166016 C20.3439998626709,-34.507999420166016 -19.71299934387207,34.87200164794922 -19.71299934387207,34.87200164794922 C-19.71299934387207,34.87200164794922 -20.3439998626709,34.507999420166016 -20.3439998626709,34.507999420166016 C-20.3439998626709,34.507999420166016 19.71299934387207,-34.87200164794922 19.71299934387207,-34.87200164794922 C19.71299934387207,-34.87200164794922 20.3439998626709,-34.507999420166016 20.3439998626709,-34.507999420166016z"></path></g></g><g transform="matrix(1.8381799459457397,0,0,1.8381799459457397,54.23320007324219,14.711796760559082)" opacity="1" style="display: block;"><g opacity="1" transform="matrix(1,0,0,1,127.95700073242188,6.961999893188477)"><path fill="rgb(65025,65025,65025)" fill-opacity="1" d=" M6.9629998207092285,0 C6.9629998207092285,3.8450000286102295 3.8450000286102295,6.961999893188477 -0.0010000000474974513,6.961999893188477 C-3.8459999561309814,6.961999893188477 -6.9629998207092285,3.8450000286102295 -6.9629998207092285,0 C-6.9629998207092285,-3.8459999561309814 -3.8459999561309814,-6.9629998207092285 -0.0010000000474974513,-6.9629998207092285 C3.8450000286102295,-6.9629998207092285 6.9629998207092285,-3.8459999561309814 6.9629998207092285,0z"></path></g></g><g transform="matrix(1.8381799459457397,0,0,1.8381799459457397,54.23308563232422,14.713027954101562)" opacity="1" style="display: block;"><g opacity="1" transform="matrix(1,0,0,1,58.14699935913086,128)"><path fill="rgb(65025,65025,65025)" fill-opacity="1" d=" M2.822999954223633,0 C2.822999954223633,1.559000015258789 1.559000015258789,2.822000026702881 0.0010000000474974513,2.822000026702881 C-1.5579999685287476,2.822000026702881 -2.822000026702881,1.559000015258789 -2.822000026702881,0 C-2.822000026702881,-1.559000015258789 -1.5579999685287476,-2.822000026702881 0.0010000000474974513,-2.822000026702881 C1.559000015258789,-2.822000026702881 2.822999954223633,-1.559000015258789 2.822999954223633,0z"></path></g></g><g transform="matrix(1.8381799459457397,0,0,1.8381799459457397,54.23381042480469,14.71197509765625)" opacity="1" style="display: block;"><g opacity="1" transform="matrix(1,0,0,1,32.56700134277344,102.44200134277344)"><path fill="rgb(65025,65025,65025)" fill-opacity="1" d=" M26.12700080871582,25.606000900268555 C26.12700080871582,25.606000900268555 25.606000900268555,26.12700080871582 25.606000900268555,26.12700080871582 C25.606000900268555,26.12700080871582 -26.12700080871582,-25.606000900268555 -26.12700080871582,-25.606000900268555 C-26.12700080871582,-25.606000900268555 -25.606000900268555,-26.12700080871582 -25.606000900268555,-26.12700080871582 C-25.606000900268555,-26.12700080871582 26.12700080871582,25.606000900268555 26.12700080871582,25.606000900268555z"></path></g></g><g transform="matrix(1.8381799459457397,0,0,1.8381799459457397,54.23390197753906,14.71197509765625)" opacity="1" style="display: block;"><g opacity="1" transform="matrix(1,0,0,1,67.85099792480469,41.702999114990234)"><path fill="rgb(65025,65025,65025)" fill-opacity="1" d=" M60.939998626708984,-34.09299850463867 C60.939998626708984,-34.09299850463867 -59.99599838256836,35.729000091552734 -59.99599838256836,35.729000091552734 C-59.99599838256836,35.729000091552734 -60.939998626708984,34.09299850463867 -60.939998626708984,34.09299850463867 C-60.939998626708984,34.09299850463867 59.994998931884766,-35.729000091552734 59.994998931884766,-35.729000091552734 C59.994998931884766,-35.729000091552734 60.939998626708984,-34.09299850463867 60.939998626708984,-34.09299850463867z"></path></g></g><g transform="matrix(1.8381799459457397,0,0,1.8381799459457397,54.234405517578125,14.712982177734375)" opacity="1" style="display: block;"><g opacity="1" transform="matrix(1,0,0,1,117.23899841308594,127.97599792480469)"><path fill="rgb(65025,65025,65025)" fill-opacity="1" d=" M2.8420000076293945,0 C2.8420000076293945,1.569000005722046 1.569000005722046,2.8410000801086426 -0.0010000000474974513,2.8410000801086426 C-1.569000005722046,2.8410000801086426 -2.8420000076293945,1.569000005722046 -2.8420000076293945,0 C-2.8420000076293945,-1.569000005722046 -1.569000005722046,-2.8410000801086426 -0.0010000000474974513,-2.8410000801086426 C1.569000005722046,-2.8410000801086426 2.8420000076293945,-1.569000005722046 2.8420000076293945,0z"></path></g></g><g transform="matrix(1.8381799459457397,0,0,1.8381799459457397,54.23344421386719,14.712051391601562)" opacity="1" style="display: block;"><g opacity="1" transform="matrix(1,0,0,1,102.19400024414062,32.77899932861328)"><path fill="rgb(65025,65025,65025)" fill-opacity="1" d=" M25.018999099731445,-26.354000091552734 C25.018999099731445,-26.354000091552734 -26.354000091552734,25.018999099731445 -26.354000091552734,25.018999099731445 C-26.354000091552734,25.018999099731445 -25.018999099731445,26.354000091552734 -25.018999099731445,26.354000091552734 C-25.018999099731445,26.354000091552734 26.354000091552734,-25.018999099731445 26.354000091552734,-25.018999099731445 C26.354000091552734,-25.018999099731445 25.018999099731445,-26.354000091552734 25.018999099731445,-26.354000091552734z"></path></g></g><g transform="matrix(1.8381799459457397,0,0,1.8381799459457397,54.233001708984375,14.712127685546875)" opacity="1" style="display: block;"><g opacity="1" transform="matrix(1,0,0,1,127.16000366210938,128.02000427246094)"><path fill="rgb(65025,65025,65025)" fill-opacity="1" d=" M-69.01300048828125,0.3840000033378601 C-69.01300048828125,0.3840000033378601 69.01300048828125,0.3840000033378601 69.01300048828125,0.3840000033378601 C69.01300048828125,0.3840000033378601 69.01300048828125,-0.38499999046325684 69.01300048828125,-0.38499999046325684 C69.01300048828125,-0.38499999046325684 -69.01300048828125,-0.38499999046325684 -69.01300048828125,-0.38499999046325684 C-69.01300048828125,-0.38499999046325684 -69.01300048828125,0.3840000033378601 -69.01300048828125,0.3840000033378601z"></path></g></g><g transform="matrix(1.8381799459457397,0,0,1.8381799459457397,54.2332763671875,14.712890625)" opacity="1" style="display: block;"><g opacity="1" transform="matrix(1,0,0,1,42.32400131225586,67.37799835205078)"><path fill="rgb(65025,65025,65025)" fill-opacity="1" d=" M34.604000091552734,-10.206000328063965 C34.604000091552734,-10.206000328063965 -35.09000015258789,8.383999824523926 -35.09000015258789,8.383999824523926 C-35.09000015258789,8.383999824523926 -34.604000091552734,10.206000328063965 -34.604000091552734,10.206000328063965 C-34.604000091552734,10.206000328063965 35.09000015258789,-8.383999824523926 35.09000015258789,-8.383999824523926 C35.09000015258789,-8.383999824523926 34.604000091552734,-10.206000328063965 34.604000091552734,-10.206000328063965z"></path></g></g><g transform="matrix(1.8381799459457397,0,0,1.8381799459457397,54.23436737060547,14.712615966796875)" opacity="1" style="display: block;"><g opacity="1" transform="matrix(1,0,0,1,21.82900047302246,153.427001953125)"><path fill="rgb(65025,65025,65025)" fill-opacity="1" d=" M15.604000091552734,-25.13800048828125 C15.604000091552734,-25.13800048828125 -13.968000411987305,26.082000732421875 -13.968000411987305,26.082000732421875 C-13.968000411987305,26.082000732421875 -15.604000091552734,25.136999130249023 -15.604000091552734,25.136999130249023 C-15.604000091552734,25.136999130249023 13.967000007629395,-26.08300018310547 13.967000007629395,-26.08300018310547 C13.967000007629395,-26.08300018310547 15.604000091552734,-25.13800048828125 15.604000091552734,-25.13800048828125z"></path></g></g><g transform="matrix(1.8381799459457397,0,0,1.8381799459457397,54.2335205078125,14.713592529296875)" opacity="1" style="display: block;"><g opacity="1" transform="matrix(1,0,0,1,146.7689971923828,179.14100646972656)"><path fill="rgb(65025,65025,65025)" fill-opacity="1" d=" M2.8320000171661377,-0.0010000000474974513 C2.8320000171661377,1.562999963760376 1.5640000104904175,2.8320000171661377 0,2.8320000171661377 C-1.5640000104904175,2.8320000171661377 -2.8320000171661377,1.562999963760376 -2.8320000171661377,-0.0010000000474974513 C-2.8320000171661377,-1.565000057220459 -1.5640000104904175,-2.8329999446868896 0,-2.8329999446868896 C1.5640000104904175,-2.8329999446868896 2.8320000171661377,-1.565000057220459 2.8320000171661377,-0.0010000000474974513z"></path></g></g><g transform="matrix(1.8381799459457397,0,0,1.8381799459457397,54.23260498046875,14.714019775390625)" opacity="1" style="display: block;"><g opacity="1" transform="matrix(1,0,0,1,41.972999572753906,188.5240020751953)"><path fill="rgb(65025,65025,65025)" fill-opacity="1" d=" M34.76599884033203,10.338000297546387 C34.76599884033203,10.338000297546387 -35.257999420166016,-8.505999565124512 -35.257999420166016,-8.505999565124512 C-35.257999420166016,-8.505999565124512 -34.76599884033203,-10.338000297546387 -34.76599884033203,-10.338000297546387 C-34.76599884033203,-10.338000297546387 35.257999420166016,8.505999565124512 35.257999420166016,8.505999565124512 C35.257999420166016,8.505999565124512 34.76599884033203,10.338000297546387 34.76599884033203,10.338000297546387z"></path></g></g><g transform="matrix(1.8381799459457397,0,0,1.8381799459457397,54.233856201171875,14.712127685546875)" opacity="1" style="display: block;"><g opacity="1" transform="matrix(1,0,0,1,170.60699462890625,155.26600646972656)"><path fill="rgb(65025,65025,65025)" fill-opacity="1" d=" M24.291000366210938,-23.773000717163086 C24.291000366210938,-23.773000717163086 -23.77199935913086,24.291000366210938 -23.77199935913086,24.291000366210938 C-23.77199935913086,24.291000366210938 -24.291000366210938,23.773000717163086 -24.291000366210938,23.773000717163086 C-24.291000366210938,23.773000717163086 23.773000717163086,-24.291000366210938 23.773000717163086,-24.291000366210938 C23.773000717163086,-24.291000366210938 24.291000366210938,-23.773000717163086 24.291000366210938,-23.773000717163086z"></path></g></g><g transform="matrix(1.8381799459457397,0,0,1.8381799459457397,54.23268508911133,14.713470458984375)" opacity="1" style="display: block;"><g opacity="1" transform="matrix(1,0,0,1,7.000999927520752,179.12899780273438)"><path fill="rgb(65025,65025,65025)" fill-opacity="1" d=" M7.000999927520752,0 C7.000999927520752,3.867000102996826 3.867000102996826,7.000999927520752 0,7.000999927520752 C-3.867000102996826,7.000999927520752 -7.000999927520752,3.867000102996826 -7.000999927520752,0 C-7.000999927520752,-3.865999937057495 -3.867000102996826,-7.000999927520752 0,-7.000999927520752 C3.867000102996826,-7.000999927520752 7.000999927520752,-3.865999937057495 7.000999927520752,0z"></path></g></g><g transform="matrix(1.8381799459457397,0,0,1.8381799459457397,54.232364654541016,14.712646484375)" opacity="1" style="display: block;"><g opacity="1" transform="matrix(1,0,0,1,6.935999870300293,76.87200164794922)"><path fill="rgb(65025,65025,65025)" fill-opacity="1" d=" M6.935999870300293,0.0010000000474974513 C6.935999870300293,3.8320000171661377 3.8310000896453857,6.936999797821045 -0.0010000000474974513,6.936999797821045 C-3.8310000896453857,6.936999797821045 -6.936999797821045,3.8320000171661377 -6.936999797821045,0.0010000000474974513 C-6.936999797821045,-3.8299999237060547 -3.8310000896453857,-6.936999797821045 -0.0010000000474974513,-6.936999797821045 C3.8310000896453857,-6.936999797821045 6.935999870300293,-3.8299999237060547 6.935999870300293,0.0010000000474974513z"></path></g></g><g transform="matrix(1.8381799459457397,0,0,1.8381799459457397,54.23436737060547,14.713592529296875)" opacity="1" style="display: block;"><g opacity="1" transform="matrix(1,0,0,1,76.5530014038086,179.1510009765625)"><path fill="rgb(65025,65025,65025)" fill-opacity="1" d=" M-70.35099792480469,0.36399999260902405 C-70.35099792480469,0.36399999260902405 70.35099792480469,0.36399999260902405 70.35099792480469,0.36399999260902405 C70.35099792480469,0.36399999260902405 70.35099792480469,-0.36500000953674316 70.35099792480469,-0.36500000953674316 C70.35099792480469,-0.36500000953674316 -70.35099792480469,-0.36500000953674316 -70.35099792480469,-0.36500000953674316 C-70.35099792480469,-0.36500000953674316 -70.35099792480469,0.36399999260902405 -70.35099792480469,0.36399999260902405z"></path></g></g><g transform="matrix(1.8381799459457397,0,0,1.8381799459457397,54.23260498046875,14.713226318359375)" opacity="1" style="display: block;"><g opacity="1" transform="matrix(1,0,0,1,41.56100082397461,136.7530059814453)"><path fill="rgb(65025,65025,65025)" fill-opacity="1" d=" M35.875999450683594,60.249000549316406 C35.875999450683594,60.249000549316406 34.237998962402344,61.19300079345703 34.237998962402344,61.19300079345703 C34.237998962402344,61.19300079345703 -35.875999450683594,-60.249000549316406 -35.875999450683594,-60.249000549316406 C-35.875999450683594,-60.249000549316406 -34.237998962402344,-61.19300079345703 -34.237998962402344,-61.19300079345703 C-34.237998962402344,-61.19300079345703 35.875999450683594,60.249000549316406 35.875999450683594,60.249000549316406z"></path></g></g><g transform="matrix(1.8381799459457397,0,0,1.8381799459457397,54.233856201171875,14.712127685546875)" opacity="1" style="display: block;"><g opacity="1" transform="matrix(1,0,0,1,137.7729949951172,93.30000305175781)"><path fill="rgb(65025,65025,65025)" fill-opacity="1" d=" M60.09700012207031,37.334999084472656 C60.09700012207031,37.334999084472656 -62.38199996948242,-33.37799835205078 -62.38199996948242,-33.37799835205078 C-62.38199996948242,-33.37799835205078 -60.09600067138672,-37.334999084472656 -60.09600067138672,-37.334999084472656 C-60.09600067138672,-37.334999084472656 62.38199996948242,33.37799835205078 62.38199996948242,33.37799835205078 C62.38199996948242,33.37799835205078 60.09700012207031,37.334999084472656 60.09700012207031,37.334999084472656z"></path></g></g><g transform="matrix(1.8381799459457397,0,0,1.8381799459457397,54.2332763671875,14.713043212890625)" opacity="1" style="display: block;"><g opacity="1" transform="matrix(1,0,0,1,136.88999938964844,163.2100067138672)"><path fill="rgb(65025,65025,65025)" fill-opacity="1" d=" M60.97800064086914,-32.56700134277344 C60.97800064086914,-32.56700134277344 -58.69200134277344,36.525001525878906 -58.69200134277344,36.525001525878906 C-58.69200134277344,36.525001525878906 -60.97800064086914,32.566001892089844 -60.97800064086914,32.566001892089844 C-60.97800064086914,32.566001892089844 58.69300079345703,-36.525001525878906 58.69300079345703,-36.525001525878906 C58.69300079345703,-36.525001525878906 60.97800064086914,-32.56700134277344 60.97800064086914,-32.56700134277344z"></path></g></g><g transform="matrix(1.8381799459457397,0,0,1.8381799459457397,54.2332763671875,14.713218688964844)" opacity="1" style="display: block;"><g opacity="1" transform="matrix(1,0,0,1,76.8499984741211,127.18299865722656)"><path fill="rgb(65025,65025,65025)" fill-opacity="1" d=" M2.2860000133514404,68.3290023803711 C2.2860000133514404,68.3290023803711 -2.2860000133514404,68.3290023803711 -2.2860000133514404,68.3290023803711 C-2.2860000133514404,68.3290023803711 -2.2860000133514404,-68.3290023803711 -2.2860000133514404,-68.3290023803711 C-2.2860000133514404,-68.3290023803711 2.2860000133514404,-68.3290023803711 2.2860000133514404,-68.3290023803711 C2.2860000133514404,-68.3290023803711 2.2860000133514404,68.3290023803711 2.2860000133514404,68.3290023803711z"></path></g></g><g transform="matrix(1.8381799459457397,0,0,1.8381799459457397,54.233856201171875,14.712127685546875)" opacity="1" style="display: block;"><g opacity="1" transform="matrix(1,0,0,1,197.82899475097656,128.02999877929688)"><path fill="rgb(65025,65025,65025)" fill-opacity="1" d=" M14.942999839782715,-0.0010000000474974513 C14.942999839782715,8.25100040435791 8.253000259399414,14.942999839782715 0,14.942999839782715 C-8.251999855041504,14.942999839782715 -14.942999839782715,8.25100040435791 -14.942999839782715,-0.0010000000474974513 C-14.942999839782715,-8.253000259399414 -8.251999855041504,-14.942000389099121 0,-14.942000389099121 C8.253000259399414,-14.942000389099121 14.942999839782715,-8.253000259399414 14.942999839782715,-0.0010000000474974513z"></path></g></g><g transform="matrix(1.8381799459457397,0,0,1.8381799459457397,54.23426818847656,14.7138671875)" opacity="1" style="display: block;"><g opacity="1" transform="matrix(1,0,0,1,76.7959976196289,197.927001953125)"><path fill="rgb(65025,65025,65025)" fill-opacity="1" d=" M14.845000267028809,0 C14.845000267028809,8.199000358581543 8.199000358581543,14.845999717712402 0,14.845999717712402 C-8.199000358581543,14.845999717712402 -14.845000267028809,8.199000358581543 -14.845000267028809,0 C-14.845000267028809,-8.199000358581543 -8.199000358581543,-14.845999717712402 0,-14.845999717712402 C8.199000358581543,-14.845999717712402 14.845000267028809,-8.199000358581543 14.845000267028809,0z"></path></g></g><g transform="matrix(1.8381799459457397,0,0,1.8381799459457397,54.23344421386719,14.712211608886719)" opacity="1" style="display: block;"><g opacity="1" transform="matrix(1,0,0,1,76.83000183105469,58.07899856567383)"><path fill="rgb(65025,65025,65025)" fill-opacity="1" d=" M14.85099983215332,0 C14.85099983215332,8.20199966430664 8.20199966430664,14.85099983215332 0,14.85099983215332 C-8.20199966430664,14.85099983215332 -14.85099983215332,8.20199966430664 -14.85099983215332,0 C-14.85099983215332,-8.20199966430664 -8.20199966430664,-14.85099983215332 0,-14.85099983215332 C8.20199966430664,-14.85099983215332 14.85099983215332,-8.20199966430664 14.85099983215332,0z"></path></g></g><g transform="matrix(1.668179988861084,0,0,1.668179988861084,72.33883666992188,36.47296142578125)" opacity="0.03609986421603963" style="display: none;"><g opacity="1" transform="matrix(1,0,0,1,138.85299682617188,128.02999877929688)"><path fill="rgb(65025,65025,65025)" fill-opacity="1" d=" M63.9630012512207,0 C63.9630012512207,0 -63.9630012512207,-73.85800170898438 -63.9630012512207,-73.85800170898438 C-63.9630012512207,-73.85800170898438 -63.9630012512207,73.85800170898438 -63.9630012512207,73.85800170898438 C-63.9630012512207,73.85800170898438 63.9630012512207,0 63.9630012512207,0z"></path></g></g></g></svg>